# Blender 5.1.2
# www.blender.org
mtllib DUMMY DAGGERS.mtl
o Cube.001
v 0.125361 0.305634 0.183769
v 0.128441 0.299153 0.180688
v -0.054631 0.299153 0.180688
v -0.051551 0.305634 0.183769
v 0.133213 0.307788 -0.005259
v 0.129117 0.299167 -0.009356
v 0.129117 0.299153 0.180013
v 0.133213 0.307774 0.175917
v 0.128519 0.299167 -0.009953
v 0.123841 0.309013 -0.014631
v -0.051951 0.309013 -0.014631
v -0.056630 0.299167 -0.009953
v -0.065187 0.315661 0.170134
v -0.057342 0.299153 0.177977
v -0.057342 0.299167 -0.009241
v -0.065187 0.315674 -0.001395
v 0.129891 0.716670 -0.008550
v 0.133213 0.709678 -0.005228
v 0.133213 0.709664 0.175948
v 0.129891 0.716655 0.179271
v 0.129607 0.716655 0.179555
v 0.125361 0.707721 0.183800
v -0.051551 0.707721 0.183800
v -0.055797 0.716655 0.179555
v 0.123841 0.706134 -0.014601
v 0.128848 0.716670 -0.009593
v -0.056958 0.716670 -0.009593
v -0.051951 0.706134 -0.014601
v -0.059729 0.716656 0.175623
v -0.065187 0.705171 0.170164
v -0.065187 0.705184 -0.001365
v -0.059729 0.716670 -0.006822
v 0.125361 0.305649 -0.017603
v 0.128441 0.299168 -0.020683
v -0.054631 0.299168 -0.020683
v -0.051551 0.305649 -0.017603
v 0.133214 0.307804 -0.206630
v 0.129117 0.299183 -0.210728
v 0.129117 0.299168 -0.021358
v 0.133214 0.307790 -0.025455
v 0.128520 0.299183 -0.211325
v 0.123841 0.309029 -0.216003
v -0.051951 0.309029 -0.216003
v -0.056630 0.299183 -0.211325
v -0.065187 0.315677 -0.031237
v -0.057342 0.299168 -0.023394
v -0.057342 0.299183 -0.210612
v -0.065187 0.315690 -0.202767
v 0.129891 0.716685 -0.209921
v 0.133214 0.709694 -0.206599
v 0.133214 0.709680 -0.025424
v 0.129891 0.716671 -0.022101
v 0.129607 0.716671 -0.021816
v 0.125361 0.707737 -0.017572
v -0.051551 0.707737 -0.017572
v -0.055797 0.716671 -0.021816
v 0.123841 0.706149 -0.215972
v 0.128848 0.716685 -0.210964
v -0.056958 0.716685 -0.210964
v -0.051951 0.706149 -0.215972
v -0.059729 0.716671 -0.025749
v -0.065187 0.705186 -0.031207
v -0.065187 0.705199 -0.202737
v -0.059729 0.716685 -0.208194
v 0.125361 -0.116611 0.184740
v 0.128441 -0.123092 0.178458
v -0.054631 -0.123092 0.178458
v -0.051551 -0.116611 0.184740
v 0.133214 -0.114441 -0.200771
v 0.129117 -0.123062 -0.209127
v 0.129117 -0.123092 0.177081
v 0.133214 -0.114470 0.168726
v 0.128520 -0.123062 -0.210345
v 0.123841 -0.113216 -0.219886
v -0.051951 -0.113216 -0.219886
v -0.056630 -0.123062 -0.210345
v -0.065187 -0.106583 0.156932
v -0.057342 -0.123091 0.172929
v -0.057342 -0.123062 -0.208892
v -0.065187 -0.106556 -0.192892
v 0.129891 0.294441 -0.207516
v 0.133214 0.287448 -0.200740
v 0.133214 0.287420 0.168757
v 0.129891 0.294411 0.175533
v 0.129607 0.294411 0.176114
v 0.125361 0.285477 0.184771
v -0.051551 0.285477 0.184771
v -0.055797 0.294411 0.176114
v 0.123841 0.283905 -0.219856
v 0.128848 0.294441 -0.209643
v -0.056958 0.294441 -0.209643
v -0.051951 0.283905 -0.219856
v -0.059729 0.294412 0.168094
v -0.065187 0.282927 0.156962
v -0.065187 0.282954 -0.192862
v -0.059729 0.294440 -0.203993
v 0.125361 -0.116205 0.383210
v 0.128441 -0.122686 0.380130
v -0.054631 -0.122686 0.380130
v -0.051551 -0.116205 0.383210
v 0.133214 -0.114050 0.194183
v 0.129117 -0.122671 0.190085
v 0.129117 -0.122686 0.379455
v 0.133214 -0.114064 0.375358
v 0.128520 -0.122671 0.189488
v 0.123841 -0.112825 0.184810
v -0.051951 -0.112825 0.184810
v -0.056630 -0.122671 0.189488
v -0.065187 -0.106177 0.369576
v -0.057342 -0.122685 0.377419
v -0.057342 -0.122671 0.190201
v -0.065187 -0.106164 0.198047
v 0.129891 0.294832 0.190892
v 0.133214 0.287840 0.194214
v 0.133214 0.287826 0.375389
v 0.129891 0.294817 0.378712
v 0.129607 0.294817 0.378997
v 0.125361 0.285883 0.383241
v -0.051551 0.285883 0.383241
v -0.055797 0.294817 0.378997
v 0.123841 0.284295 0.184841
v 0.128848 0.294832 0.189849
v -0.056958 0.294832 0.189849
v -0.051951 0.284295 0.184841
v -0.059729 0.294817 0.375064
v -0.065187 0.283332 0.369606
v -0.065187 0.283346 0.198077
v -0.059729 0.294831 0.192619
v 0.125361 -0.116158 -0.218574
v 0.128441 -0.122639 -0.221654
v -0.054631 -0.122639 -0.221654
v -0.051551 -0.116158 -0.218574
v 0.133214 -0.114004 -0.407601
v 0.129117 -0.122625 -0.411699
v 0.129117 -0.122639 -0.222329
v 0.133214 -0.114018 -0.226426
v 0.128520 -0.122625 -0.412296
v 0.123841 -0.112779 -0.416974
v -0.051951 -0.112779 -0.416974
v -0.056630 -0.122625 -0.412296
v -0.065187 -0.106131 -0.232208
v -0.057342 -0.122639 -0.224365
v -0.057342 -0.122625 -0.411583
v -0.065187 -0.106118 -0.403737
v 0.129891 0.294878 -0.410892
v 0.133214 0.287886 -0.407570
v 0.133214 0.287872 -0.226395
v 0.129891 0.294863 -0.223072
v 0.129607 0.294863 -0.222787
v 0.125361 0.285930 -0.218543
v -0.051551 0.285930 -0.218543
v -0.055797 0.294863 -0.222787
v 0.123841 0.284342 -0.416943
v 0.128848 0.294878 -0.411935
v -0.056958 0.294878 -0.411935
v -0.051951 0.284342 -0.416943
v -0.059729 0.294864 -0.226720
v -0.065187 0.283379 -0.232178
v -0.065187 0.283392 -0.403708
v -0.059729 0.294878 -0.409165
v 0.058986 -0.246463 0.106107
v 0.083763 -0.246463 0.103666
v 0.107588 -0.246462 0.096439
v 0.129546 -0.246461 0.084703
v 0.148791 -0.246460 0.068908
v 0.164586 -0.246459 0.049663
v 0.176322 -0.246457 0.027705
v 0.183549 -0.246455 0.003880
v 0.185990 -0.246453 -0.020897
v 0.183549 -0.246451 -0.045674
v 0.176322 -0.246449 -0.069499
v 0.164586 -0.246448 -0.091456
v 0.148791 -0.246446 -0.110701
v 0.129546 -0.246445 -0.126496
v 0.107588 -0.246444 -0.138232
v 0.083763 -0.246444 -0.145460
v 0.058986 -0.246443 -0.147900
v 0.034209 -0.246444 -0.145460
v 0.010384 -0.246444 -0.138232
v -0.011573 -0.246445 -0.126496
v -0.030818 -0.246446 -0.110701
v -0.046613 -0.246448 -0.091456
v -0.058349 -0.246449 -0.069499
v -0.065577 -0.246451 -0.045674
v -0.068017 -0.246453 -0.020897
v -0.065577 -0.246455 0.003880
v -0.058349 -0.246457 0.027705
v -0.046613 -0.246459 0.049663
v -0.030818 -0.246460 0.068908
v -0.011573 -0.246461 0.084703
v 0.010384 -0.246462 0.096439
v 0.034209 -0.246463 0.103666
v 0.058986 -0.370411 0.098547
v 0.058986 -0.366745 0.106097
v 0.058986 -0.369742 0.099925
v 0.058986 -0.369143 0.101159
v 0.058986 -0.368578 0.102322
v 0.058986 -0.368014 0.103485
v 0.058986 -0.367414 0.104719
v 0.082290 -0.370411 0.096251
v 0.083763 -0.366745 0.103657
v 0.082559 -0.369742 0.097603
v 0.082800 -0.369142 0.098814
v 0.083027 -0.368578 0.099954
v 0.083254 -0.368013 0.101094
v 0.083495 -0.367414 0.102305
v 0.104699 -0.370411 0.089454
v 0.107588 -0.366744 0.096430
v 0.105226 -0.369741 0.090727
v 0.105699 -0.369142 0.091868
v 0.106144 -0.368577 0.092942
v 0.106589 -0.368013 0.094016
v 0.107061 -0.367414 0.095156
v 0.125351 -0.370410 0.078415
v 0.129546 -0.366743 0.084693
v 0.126116 -0.369740 0.079561
v 0.126802 -0.369141 0.080587
v 0.127448 -0.368577 0.081554
v 0.128094 -0.368012 0.082521
v 0.128780 -0.367413 0.083547
v 0.143452 -0.370409 0.063560
v 0.148791 -0.366742 0.068899
v 0.144427 -0.369739 0.064534
v 0.145299 -0.369140 0.065407
v 0.146122 -0.368575 0.066229
v 0.146944 -0.368011 0.067051
v 0.147817 -0.367411 0.067924
v 0.158308 -0.370407 0.045458
v 0.164586 -0.366741 0.049653
v 0.159453 -0.369738 0.046224
v 0.160480 -0.369138 0.046910
v 0.161447 -0.368574 0.047556
v 0.162413 -0.368009 0.048202
v 0.163440 -0.367410 0.048888
v 0.169346 -0.370406 0.024806
v 0.176322 -0.366739 0.027696
v 0.170619 -0.369736 0.025334
v 0.171760 -0.369137 0.025806
v 0.172834 -0.368572 0.026251
v 0.173908 -0.368008 0.026696
v 0.175049 -0.367408 0.027169
v 0.176144 -0.370404 0.002398
v 0.183549 -0.366737 0.003871
v 0.177495 -0.369735 0.002667
v 0.178706 -0.369135 0.002908
v 0.179846 -0.368571 0.003135
v 0.180987 -0.368006 0.003361
v 0.182198 -0.367406 0.003602
v 0.178439 -0.370402 -0.020906
v 0.185990 -0.366735 -0.020906
v 0.179817 -0.369733 -0.020906
v 0.181052 -0.369133 -0.020906
v 0.182214 -0.368569 -0.020906
v 0.183377 -0.368004 -0.020906
v 0.184611 -0.367405 -0.020906
v 0.176144 -0.370400 -0.044210
v 0.183549 -0.366733 -0.045683
v 0.177495 -0.369731 -0.044479
v 0.178706 -0.369131 -0.044720
v 0.179846 -0.368567 -0.044947
v 0.180987 -0.368002 -0.045173
v 0.182198 -0.367403 -0.045414
v 0.169346 -0.370399 -0.066619
v 0.176322 -0.366732 -0.069508
v 0.170619 -0.369729 -0.067146
v 0.171760 -0.369130 -0.067618
v 0.172834 -0.368565 -0.068063
v 0.173908 -0.368000 -0.068508
v 0.175049 -0.367401 -0.068981
v 0.158308 -0.370397 -0.087271
v 0.164586 -0.366730 -0.091465
v 0.159453 -0.369728 -0.088036
v 0.160480 -0.369128 -0.088722
v 0.161447 -0.368563 -0.089368
v 0.162413 -0.367999 -0.090014
v 0.163440 -0.367399 -0.090700
v 0.143452 -0.370396 -0.105372
v 0.148791 -0.366728 -0.110711
v 0.144427 -0.369726 -0.106346
v 0.145299 -0.369127 -0.107219
v 0.146122 -0.368562 -0.108041
v 0.146944 -0.367997 -0.108863
v 0.147817 -0.367398 -0.109736
v 0.125351 -0.370394 -0.120227
v 0.129546 -0.366727 -0.126505
v 0.126116 -0.369725 -0.121373
v 0.126802 -0.369125 -0.122400
v 0.127448 -0.368561 -0.123366
v 0.128094 -0.367996 -0.124333
v 0.128780 -0.367397 -0.125359
v 0.104699 -0.370394 -0.131266
v 0.107588 -0.366726 -0.138242
v 0.105226 -0.369724 -0.132539
v 0.105699 -0.369125 -0.133680
v 0.106144 -0.368560 -0.134754
v 0.106589 -0.367995 -0.135828
v 0.107061 -0.367396 -0.136968
v 0.082290 -0.370393 -0.138064
v 0.083763 -0.366726 -0.145469
v 0.082559 -0.369724 -0.139415
v 0.082800 -0.369124 -0.140626
v 0.083027 -0.368559 -0.141766
v 0.083254 -0.367995 -0.142906
v 0.083495 -0.367395 -0.144117
v 0.058986 -0.370393 -0.140359
v 0.058986 -0.366726 -0.147909
v 0.058986 -0.369723 -0.141737
v 0.058986 -0.369124 -0.142971
v 0.058986 -0.368559 -0.144134
v 0.058986 -0.367994 -0.145297
v 0.058986 -0.367395 -0.146531
v 0.035682 -0.370393 -0.138064
v 0.034209 -0.366726 -0.145469
v 0.035413 -0.369724 -0.139415
v 0.035173 -0.369124 -0.140626
v 0.034946 -0.368559 -0.141766
v 0.034719 -0.367995 -0.142906
v 0.034478 -0.367395 -0.144117
v 0.013274 -0.370394 -0.131266
v 0.010384 -0.366726 -0.138242
v 0.012746 -0.369724 -0.132539
v 0.012274 -0.369125 -0.133680
v 0.011829 -0.368560 -0.134754
v 0.011384 -0.367995 -0.135828
v 0.010912 -0.367396 -0.136968
v -0.007378 -0.370394 -0.120227
v -0.011573 -0.366727 -0.126505
v -0.008144 -0.369725 -0.121373
v -0.008830 -0.369125 -0.122400
v -0.009475 -0.368561 -0.123366
v -0.010121 -0.367996 -0.124333
v -0.010807 -0.367397 -0.125359
v -0.025479 -0.370396 -0.105372
v -0.030818 -0.366728 -0.110711
v -0.026454 -0.369726 -0.106346
v -0.027327 -0.369127 -0.107219
v -0.028149 -0.368562 -0.108041
v -0.028971 -0.367997 -0.108863
v -0.029844 -0.367398 -0.109736
v -0.040335 -0.370397 -0.087271
v -0.046613 -0.366730 -0.091465
v -0.041481 -0.369728 -0.088036
v -0.042507 -0.369128 -0.088722
v -0.043474 -0.368563 -0.089368
v -0.044441 -0.367999 -0.090014
v -0.045467 -0.367399 -0.090700
v -0.051374 -0.370399 -0.066619
v -0.058349 -0.366732 -0.069508
v -0.052647 -0.369729 -0.067146
v -0.053787 -0.369130 -0.067618
v -0.054861 -0.368565 -0.068063
v -0.055936 -0.368000 -0.068508
v -0.057076 -0.367401 -0.068981
v -0.058171 -0.370400 -0.044210
v -0.065577 -0.366733 -0.045683
v -0.059523 -0.369731 -0.044479
v -0.060734 -0.369131 -0.044720
v -0.061874 -0.368567 -0.044947
v -0.063014 -0.368002 -0.045173
v -0.064225 -0.367403 -0.045414
v -0.060466 -0.370402 -0.020906
v -0.068017 -0.366735 -0.020906
v -0.061844 -0.369733 -0.020906
v -0.063079 -0.369133 -0.020906
v -0.064242 -0.368569 -0.020906
v -0.065404 -0.368004 -0.020906
v -0.066639 -0.367405 -0.020906
v -0.058171 -0.370404 0.002398
v -0.065577 -0.366737 0.003871
v -0.059523 -0.369735 0.002667
v -0.060734 -0.369135 0.002908
v -0.061874 -0.368571 0.003135
v -0.063014 -0.368006 0.003361
v -0.064225 -0.367406 0.003602
v -0.051374 -0.370406 0.024806
v -0.058349 -0.366739 0.027696
v -0.052647 -0.369736 0.025334
v -0.053787 -0.369137 0.025806
v -0.054861 -0.368572 0.026251
v -0.055936 -0.368008 0.026696
v -0.057076 -0.367408 0.027169
v -0.040335 -0.370407 0.045458
v -0.046613 -0.366741 0.049653
v -0.041481 -0.369738 0.046224
v -0.042507 -0.369138 0.046910
v -0.043474 -0.368574 0.047556
v -0.044441 -0.368009 0.048202
v -0.045467 -0.367410 0.048888
v -0.025479 -0.370409 0.063560
v -0.030818 -0.366742 0.068899
v -0.026454 -0.369739 0.064534
v -0.027327 -0.369140 0.065407
v -0.028149 -0.368575 0.066229
v -0.028971 -0.368011 0.067051
v -0.029844 -0.367411 0.067924
v -0.007378 -0.370410 0.078415
v -0.011573 -0.366743 0.084693
v -0.008144 -0.369740 0.079561
v -0.008830 -0.369141 0.080587
v -0.009475 -0.368577 0.081554
v -0.010121 -0.368012 0.082521
v -0.010807 -0.367413 0.083547
v 0.013274 -0.370411 0.089454
v 0.010384 -0.366744 0.096430
v 0.012746 -0.369741 0.090727
v 0.012274 -0.369142 0.091868
v 0.011829 -0.368577 0.092942
v 0.011384 -0.368013 0.094016
v 0.010912 -0.367414 0.095156
v 0.035682 -0.370411 0.096251
v 0.034209 -0.366745 0.103657
v 0.035413 -0.369742 0.097603
v 0.035173 -0.369142 0.098814
v 0.034946 -0.368578 0.099954
v 0.034719 -0.368013 0.101094
v 0.034478 -0.367414 0.102305
v 0.058986 -0.246320 -0.147834
v 0.083763 -0.246318 -0.145394
v 0.107588 -0.246311 -0.138167
v 0.129546 -0.246299 -0.126430
v 0.148791 -0.246284 -0.110636
v 0.164586 -0.246265 -0.091390
v 0.176322 -0.246244 -0.069433
v 0.183549 -0.246220 -0.045608
v 0.185990 -0.246196 -0.020831
v 0.183549 -0.246172 0.003946
v 0.176322 -0.246148 0.027771
v 0.164586 -0.246127 0.049728
v 0.148791 -0.246108 0.068974
v 0.129546 -0.246092 0.084768
v 0.107588 -0.246081 0.096504
v 0.083763 -0.246074 0.103732
v 0.058986 -0.246071 0.106172
v 0.034209 -0.246074 0.103732
v 0.010384 -0.246081 0.096504
v -0.011573 -0.246092 0.084768
v -0.030818 -0.246108 0.068974
v -0.046613 -0.246127 0.049728
v -0.058349 -0.246148 0.027771
v -0.065577 -0.246172 0.003946
v -0.068017 -0.246196 -0.020831
v -0.065577 -0.246220 -0.045608
v -0.058349 -0.246244 -0.069433
v -0.046613 -0.246265 -0.091390
v -0.030818 -0.246284 -0.110636
v -0.011573 -0.246299 -0.126430
v 0.010384 -0.246311 -0.138167
v 0.034209 -0.246318 -0.145394
v 0.058986 -0.122364 -0.140405
v 0.058986 -0.126038 -0.147952
v 0.058986 -0.123034 -0.141783
v 0.058986 -0.123635 -0.143017
v 0.058986 -0.124201 -0.144179
v 0.058986 -0.124767 -0.145341
v 0.058986 -0.125367 -0.146575
v 0.082290 -0.122362 -0.138110
v 0.083763 -0.126036 -0.145512
v 0.082559 -0.123032 -0.139461
v 0.082800 -0.123633 -0.140671
v 0.083027 -0.124199 -0.141811
v 0.083254 -0.124764 -0.142951
v 0.083495 -0.125365 -0.144161
v 0.104699 -0.122355 -0.131312
v 0.107588 -0.126029 -0.138285
v 0.105226 -0.123025 -0.132585
v 0.105699 -0.123626 -0.133725
v 0.106144 -0.124192 -0.134798
v 0.106589 -0.124757 -0.135872
v 0.107061 -0.125358 -0.137012
v 0.125351 -0.122344 -0.120274
v 0.129546 -0.126017 -0.126548
v 0.126116 -0.123015 -0.121419
v 0.126802 -0.123615 -0.122445
v 0.127448 -0.124181 -0.123411
v 0.128094 -0.124746 -0.124377
v 0.128780 -0.125347 -0.125403
v 0.143452 -0.122330 -0.105418
v 0.148791 -0.126002 -0.110754
v 0.144427 -0.123000 -0.106392
v 0.145299 -0.123600 -0.107264
v 0.146122 -0.124166 -0.108086
v 0.146944 -0.124731 -0.108908
v 0.147817 -0.125331 -0.109780
v 0.158308 -0.122312 -0.087317
v 0.164586 -0.125983 -0.091508
v 0.159453 -0.122982 -0.088082
v 0.160480 -0.123582 -0.088767
v 0.161447 -0.124147 -0.089413
v 0.162413 -0.124713 -0.090058
v 0.163440 -0.125313 -0.090743
v 0.169346 -0.122292 -0.066665
v 0.176322 -0.125961 -0.069551
v 0.170619 -0.122961 -0.067192
v 0.171760 -0.123561 -0.067664
v 0.172834 -0.124126 -0.068108
v 0.173908 -0.124691 -0.068552
v 0.175049 -0.125291 -0.069024
v 0.176144 -0.122270 -0.044257
v 0.183549 -0.125938 -0.045726
v 0.177495 -0.122939 -0.044525
v 0.178706 -0.123539 -0.044765
v 0.179846 -0.124104 -0.044991
v 0.180987 -0.124669 -0.045218
v 0.182198 -0.125268 -0.045458
v 0.178439 -0.122247 -0.020953
v 0.185990 -0.125914 -0.020949
v 0.179817 -0.122916 -0.020952
v 0.181052 -0.123516 -0.020951
v 0.182214 -0.124080 -0.020951
v 0.183377 -0.124645 -0.020950
v 0.184611 -0.125244 -0.020950
v 0.176144 -0.122224 0.002351
v 0.183549 -0.125889 0.003828
v 0.177495 -0.122893 0.002621
v 0.178706 -0.123492 0.002862
v 0.179846 -0.124057 0.003090
v 0.180987 -0.124621 0.003317
v 0.182198 -0.125220 0.003559
v 0.169346 -0.122202 0.024760
v 0.176322 -0.125866 0.027653
v 0.170619 -0.122871 0.025288
v 0.171760 -0.123470 0.025761
v 0.172834 -0.124034 0.026206
v 0.173908 -0.124598 0.026652
v 0.175049 -0.125197 0.027125
v 0.158308 -0.122182 0.045412
v 0.164586 -0.125844 0.049610
v 0.159453 -0.122850 0.046178
v 0.160480 -0.123449 0.046864
v 0.161447 -0.124013 0.047511
v 0.162413 -0.124577 0.048157
v 0.163440 -0.125176 0.048844
v 0.143452 -0.122164 0.063513
v 0.148791 -0.125825 0.068856
v 0.144427 -0.122832 0.064488
v 0.145299 -0.123431 0.065362
v 0.146122 -0.123995 0.066184
v 0.146944 -0.124559 0.067007
v 0.147817 -0.125157 0.067881
v 0.125351 -0.122149 0.078369
v 0.129546 -0.125810 0.084650
v 0.126116 -0.122818 0.079515
v 0.126802 -0.123416 0.080542
v 0.127448 -0.123980 0.081509
v 0.128094 -0.124543 0.082477
v 0.128780 -0.125142 0.083504
v 0.104699 -0.122139 0.089407
v 0.107588 -0.125798 0.096387
v 0.105226 -0.122807 0.090681
v 0.105699 -0.123405 0.091822
v 0.106144 -0.123969 0.092897
v 0.106589 -0.124532 0.093972
v 0.107061 -0.125131 0.095113
v 0.082290 -0.122132 0.096205
v 0.083763 -0.125791 0.103614
v 0.082559 -0.122800 0.097557
v 0.082800 -0.123398 0.098768
v 0.083027 -0.123962 0.099909
v 0.083254 -0.124525 0.101050
v 0.083495 -0.125124 0.102261
v 0.058986 -0.122130 0.098500
v 0.058986 -0.125789 0.106054
v 0.058986 -0.122798 0.099879
v 0.058986 -0.123396 0.101114
v 0.058986 -0.123959 0.102277
v 0.058986 -0.124523 0.103440
v 0.058986 -0.125121 0.104675
v 0.035682 -0.122132 0.096205
v 0.034209 -0.125791 0.103614
v 0.035413 -0.122800 0.097557
v 0.035173 -0.123398 0.098768
v 0.034946 -0.123962 0.099909
v 0.034719 -0.124525 0.101050
v 0.034478 -0.125124 0.102261
v 0.013274 -0.122139 0.089407
v 0.010384 -0.125798 0.096387
v 0.012746 -0.122807 0.090681
v 0.012274 -0.123405 0.091822
v 0.011829 -0.123969 0.092897
v 0.011384 -0.124532 0.093972
v 0.010912 -0.125131 0.095113
v -0.007378 -0.122149 0.078369
v -0.011573 -0.125810 0.084650
v -0.008144 -0.122818 0.079515
v -0.008830 -0.123416 0.080542
v -0.009475 -0.123980 0.081509
v -0.010121 -0.124543 0.082477
v -0.010807 -0.125142 0.083504
v -0.025479 -0.122164 0.063513
v -0.030818 -0.125825 0.068856
v -0.026454 -0.122832 0.064488
v -0.027327 -0.123431 0.065362
v -0.028149 -0.123995 0.066184
v -0.028971 -0.124559 0.067007
v -0.029844 -0.125157 0.067881
v -0.040335 -0.122182 0.045412
v -0.046613 -0.125844 0.049610
v -0.041481 -0.122850 0.046178
v -0.042507 -0.123449 0.046864
v -0.043474 -0.124013 0.047511
v -0.044441 -0.124577 0.048157
v -0.045467 -0.125176 0.048844
v -0.051374 -0.122202 0.024760
v -0.058349 -0.125866 0.027653
v -0.052647 -0.122871 0.025288
v -0.053787 -0.123470 0.025761
v -0.054861 -0.124034 0.026206
v -0.055936 -0.124598 0.026652
v -0.057076 -0.125197 0.027125
v -0.058171 -0.122224 0.002351
v -0.065577 -0.125889 0.003828
v -0.059523 -0.122893 0.002621
v -0.060734 -0.123492 0.002862
v -0.061874 -0.124057 0.003090
v -0.063014 -0.124621 0.003317
v -0.064225 -0.125220 0.003559
v -0.060466 -0.122247 -0.020953
v -0.068017 -0.125914 -0.020949
v -0.061844 -0.122916 -0.020952
v -0.063079 -0.123516 -0.020951
v -0.064242 -0.124080 -0.020951
v -0.065404 -0.124645 -0.020950
v -0.066639 -0.125244 -0.020950
v -0.058171 -0.122270 -0.044257
v -0.065577 -0.125938 -0.045726
v -0.059523 -0.122939 -0.044525
v -0.060734 -0.123539 -0.044765
v -0.061874 -0.124104 -0.044991
v -0.063014 -0.124669 -0.045218
v -0.064225 -0.125268 -0.045458
v -0.051374 -0.122292 -0.066665
v -0.058349 -0.125961 -0.069551
v -0.052647 -0.122961 -0.067192
v -0.053787 -0.123561 -0.067664
v -0.054861 -0.124126 -0.068108
v -0.055936 -0.124691 -0.068552
v -0.057076 -0.125291 -0.069024
v -0.040335 -0.122312 -0.087317
v -0.046613 -0.125983 -0.091508
v -0.041481 -0.122982 -0.088082
v -0.042507 -0.123582 -0.088767
v -0.043474 -0.124147 -0.089413
v -0.044441 -0.124713 -0.090058
v -0.045467 -0.125313 -0.090743
v -0.025479 -0.122330 -0.105418
v -0.030818 -0.126002 -0.110754
v -0.026454 -0.123000 -0.106392
v -0.027327 -0.123600 -0.107264
v -0.028149 -0.124166 -0.108086
v -0.028971 -0.124731 -0.108908
v -0.029844 -0.125331 -0.109780
v -0.007378 -0.122344 -0.120274
v -0.011573 -0.126017 -0.126548
v -0.008144 -0.123015 -0.121419
v -0.008830 -0.123615 -0.122445
v -0.009475 -0.124181 -0.123411
v -0.010121 -0.124746 -0.124377
v -0.010807 -0.125347 -0.125403
v 0.013274 -0.122355 -0.131312
v 0.010384 -0.126029 -0.138285
v 0.012746 -0.123025 -0.132585
v 0.012274 -0.123626 -0.133725
v 0.011829 -0.124192 -0.134798
v 0.011384 -0.124757 -0.135872
v 0.010912 -0.125358 -0.137012
v 0.035682 -0.122362 -0.138110
v 0.034209 -0.126036 -0.145512
v 0.035413 -0.123032 -0.139461
v 0.035173 -0.123633 -0.140671
v 0.034946 -0.124199 -0.141811
v 0.034719 -0.124764 -0.142951
v 0.034478 -0.125365 -0.144161
vn 0.3112 -0.1480 0.9387
vn 0.5308 -0.4281 0.7314
vn -0.5308 -0.4281 0.7314
vn -0.3112 -0.1480 0.9387
vn 0.9387 -0.1479 -0.3113
vn 0.7315 -0.4280 -0.5308
vn 0.7315 -0.4281 0.5307
vn 0.9387 -0.1479 0.3112
vn 0.5308 -0.4280 -0.7315
vn 0.3112 -0.1478 -0.9388
vn -0.3112 -0.1478 -0.9388
vn -0.5308 -0.4280 -0.7315
vn -0.9387 -0.1479 0.3112
vn -0.7315 -0.4281 0.5307
vn -0.7315 -0.4280 -0.5308
vn -0.9387 -0.1479 -0.3113
vn 0.7315 0.4281 -0.5307
vn 0.9387 0.1479 -0.3112
vn 0.9387 0.1479 0.3113
vn 0.7315 0.4280 0.5308
vn 0.5308 0.4280 0.7315
vn 0.3112 0.1478 0.9388
vn -0.3112 0.1478 0.9388
vn -0.5308 0.4280 0.7315
vn 0.3112 0.1480 -0.9387
vn 0.5308 0.4281 -0.7314
vn -0.5308 0.4281 -0.7314
vn -0.3112 0.1480 -0.9387
vn -0.7315 0.4280 0.5308
vn -0.9387 0.1479 0.3113
vn -0.9387 0.1479 -0.3112
vn -0.7315 0.4281 -0.5307
vn 0.4617 -0.2195 0.8595
vn 0.7370 -0.4384 0.5145
vn -0.7370 -0.4384 0.5145
vn -0.4617 -0.2195 0.8595
vn 0.9730 -0.1611 -0.1653
vn 0.8337 -0.4288 -0.3479
vn 0.8337 -0.4289 0.3478
vn 0.9730 -0.1611 0.1653
vn 0.7370 -0.4383 -0.5146
vn 0.4617 -0.2193 -0.8595
vn -0.4617 -0.2193 -0.8595
vn -0.7370 -0.4383 -0.5146
vn -0.9730 -0.1611 0.1653
vn -0.8337 -0.4289 0.3478
vn -0.8337 -0.4288 -0.3479
vn -0.9730 -0.1611 -0.1653
vn 0.8337 0.4289 -0.3478
vn 0.9730 0.1611 -0.1653
vn 0.9730 0.1611 0.1653
vn 0.8337 0.4288 0.3479
vn 0.7370 0.4383 0.5146
vn 0.4617 0.2193 0.8595
vn -0.4617 0.2193 0.8595
vn -0.7370 0.4383 0.5146
vn 0.4617 0.2195 -0.8595
vn 0.7370 0.4384 -0.5145
vn -0.7370 0.4384 -0.5145
vn -0.4617 0.2195 -0.8595
vn -0.8337 0.4288 0.3479
vn -0.9730 0.1611 0.1653
vn -0.9730 0.1611 -0.1653
vn -0.8337 0.4289 -0.3478
vn -0.5307 -0.4280 -0.7315
vn -0.0000 0.4085 0.9127
vn 0.1781 0.4085 0.8952
vn 0.3493 0.4085 0.8433
vn 0.5071 0.4085 0.7589
vn 0.6454 0.4085 0.6454
vn 0.7589 0.4086 0.5071
vn 0.8432 0.4086 0.3493
vn 0.8952 0.4086 0.1781
vn 0.9127 0.4086 -0.0000
vn 0.8952 0.4086 -0.1780
vn 0.8432 0.4086 -0.3492
vn 0.7589 0.4086 -0.5070
vn 0.6454 0.4086 -0.6454
vn 0.5071 0.4087 -0.7589
vn 0.3493 0.4087 -0.8432
vn 0.1781 0.4087 -0.8951
vn -0.0000 0.4087 -0.9127
vn -0.1781 0.4087 -0.8951
vn -0.3493 0.4087 -0.8432
vn -0.5071 0.4087 -0.7589
vn -0.6454 0.4086 -0.6454
vn -0.7589 0.4086 -0.5070
vn -0.8432 0.4086 -0.3492
vn -0.8952 0.4086 -0.1780
vn -0.9127 0.4086 -0.0000
vn -0.8952 0.4086 0.1781
vn -0.8432 0.4086 0.3493
vn -0.7589 0.4086 0.5071
vn -0.6454 0.4085 0.6454
vn -0.5071 0.4085 0.7589
vn -0.3493 0.4085 0.8433
vn -0.1781 0.4085 0.8952
vn -0.0000 -0.9691 0.2467
vn -0.0000 -0.3391 0.9407
vn -0.0000 -0.8996 0.4368
vn -0.0000 -0.8996 0.4367
vn 0.0481 -0.9691 0.2420
vn 0.1835 -0.3391 0.9227
vn 0.0852 -0.8996 0.4284
vn 0.0944 -0.9691 0.2279
vn 0.3600 -0.3391 0.8691
vn 0.1672 -0.8996 0.4035
vn 0.1371 -0.9691 0.2051
vn 0.5227 -0.3391 0.7822
vn 0.2427 -0.8996 0.3631
vn 0.2427 -0.8996 0.3632
vn 0.1745 -0.9691 0.1744
vn 0.6652 -0.3391 0.6652
vn 0.3089 -0.8996 0.3088
vn 0.2052 -0.9691 0.1370
vn 0.7822 -0.3391 0.5226
vn 0.3632 -0.8996 0.2426
vn 0.2280 -0.9691 0.0944
vn 0.8692 -0.3391 0.3600
vn 0.4036 -0.8996 0.1671
vn 0.4036 -0.8995 0.1671
vn 0.2420 -0.9691 0.0481
vn 0.9227 -0.3391 0.1835
vn 0.4284 -0.8996 0.0852
vn 0.4285 -0.8995 0.0852
vn 0.4284 -0.8995 0.0852
vn 0.2468 -0.9691 -0.0001
vn 0.9408 -0.3390 -0.0000
vn 0.4368 -0.8995 -0.0001
vn 0.4368 -0.8996 -0.0001
vn 0.4369 -0.8995 -0.0001
vn 0.2420 -0.9691 -0.0482
vn 0.9227 -0.3390 -0.1836
vn 0.4284 -0.8995 -0.0853
vn 0.4285 -0.8995 -0.0853
vn 0.2280 -0.9691 -0.0945
vn 0.8692 -0.3390 -0.3600
vn 0.4036 -0.8995 -0.1672
vn 0.2052 -0.9691 -0.1372
vn 0.7822 -0.3390 -0.5227
vn 0.3632 -0.8995 -0.2428
vn 0.1745 -0.9691 -0.1746
vn 0.6652 -0.3390 -0.6653
vn 0.3089 -0.8995 -0.3090
vn 0.3089 -0.8995 -0.3089
vn 0.1371 -0.9691 -0.2053
vn 0.5227 -0.3390 -0.7823
vn 0.2427 -0.8995 -0.3633
vn 0.0944 -0.9691 -0.2281
vn 0.3600 -0.3390 -0.8692
vn 0.1672 -0.8995 -0.4037
vn 0.1672 -0.8995 -0.4036
vn 0.0481 -0.9691 -0.2421
vn 0.1835 -0.3390 -0.9227
vn 0.0852 -0.8995 -0.4285
vn -0.0000 -0.9691 -0.2469
vn -0.0000 -0.3390 -0.9408
vn -0.0000 -0.8995 -0.4369
vn -0.0481 -0.9691 -0.2421
vn -0.1835 -0.3390 -0.9227
vn -0.0852 -0.8995 -0.4285
vn -0.0944 -0.9691 -0.2281
vn -0.3600 -0.3390 -0.8692
vn -0.1672 -0.8995 -0.4036
vn -0.1672 -0.8995 -0.4037
vn -0.1371 -0.9691 -0.2053
vn -0.5227 -0.3390 -0.7823
vn -0.2427 -0.8995 -0.3633
vn -0.1745 -0.9691 -0.1746
vn -0.6652 -0.3390 -0.6653
vn -0.3089 -0.8995 -0.3090
vn -0.3089 -0.8995 -0.3089
vn -0.2052 -0.9691 -0.1372
vn -0.7822 -0.3390 -0.5227
vn -0.3632 -0.8995 -0.2428
vn -0.2280 -0.9691 -0.0945
vn -0.8692 -0.3390 -0.3600
vn -0.4036 -0.8995 -0.1672
vn -0.2420 -0.9691 -0.0482
vn -0.9227 -0.3390 -0.1836
vn -0.4284 -0.8995 -0.0853
vn -0.4284 -0.8996 -0.0853
vn -0.4285 -0.8995 -0.0853
vn -0.2468 -0.9691 -0.0001
vn -0.9408 -0.3390 -0.0000
vn -0.4368 -0.8995 -0.0001
vn -0.4368 -0.8996 -0.0001
vn -0.4369 -0.8995 -0.0001
vn -0.2420 -0.9691 0.0481
vn -0.9227 -0.3391 0.1835
vn -0.4284 -0.8996 0.0852
vn -0.4285 -0.8995 0.0852
vn -0.2280 -0.9691 0.0944
vn -0.8692 -0.3391 0.3600
vn -0.4036 -0.8996 0.1671
vn -0.4036 -0.8995 0.1671
vn -0.2052 -0.9691 0.1370
vn -0.7822 -0.3391 0.5226
vn -0.3632 -0.8996 0.2426
vn -0.3632 -0.8995 0.2426
vn -0.1745 -0.9691 0.1744
vn -0.6652 -0.3391 0.6652
vn -0.3089 -0.8996 0.3088
vn -0.1371 -0.9691 0.2051
vn -0.5227 -0.3391 0.7822
vn -0.2427 -0.8996 0.3631
vn -0.2427 -0.8996 0.3632
vn -0.0944 -0.9691 0.2279
vn -0.3600 -0.3391 0.8691
vn -0.1672 -0.8996 0.4035
vn -0.0481 -0.9691 0.2420
vn -0.1835 -0.3391 0.9227
vn -0.0852 -0.8996 0.4284
vn -0.0000 -0.4095 -0.9123
vn 0.1781 -0.4094 -0.8948
vn 0.3493 -0.4094 -0.8428
vn 0.5071 -0.4093 -0.7585
vn 0.6454 -0.4092 -0.6449
vn 0.7589 -0.4091 -0.5066
vn 0.8433 -0.4089 -0.3488
vn 0.8952 -0.4088 -0.1776
vn 0.9127 -0.4086 0.0005
vn 0.8952 -0.4084 0.1786
vn 0.8432 -0.4083 0.3498
vn 0.7588 -0.4081 0.5075
vn 0.6453 -0.4080 0.6458
vn 0.5070 -0.4079 0.7593
vn 0.3492 -0.4078 0.8436
vn 0.1780 -0.4078 0.8956
vn -0.0000 -0.4077 0.9131
vn -0.1780 -0.4078 0.8956
vn -0.3492 -0.4078 0.8436
vn -0.5070 -0.4079 0.7593
vn -0.6453 -0.4080 0.6458
vn -0.7588 -0.4081 0.5075
vn -0.8432 -0.4083 0.3498
vn -0.8952 -0.4084 0.1786
vn -0.9127 -0.4086 0.0005
vn -0.8952 -0.4088 -0.1776
vn -0.8433 -0.4089 -0.3488
vn -0.7589 -0.4091 -0.5066
vn -0.6454 -0.4092 -0.6449
vn -0.5071 -0.4093 -0.7585
vn -0.3493 -0.4094 -0.8428
vn -0.1781 -0.4094 -0.8948
vn -0.0000 0.9688 -0.2477
vn -0.0000 0.3382 -0.9411
vn -0.0000 0.8991 -0.4377
vn 0.0481 0.9688 -0.2430
vn 0.1835 0.3383 -0.9230
vn 0.0852 0.8991 -0.4293
vn 0.0944 0.9688 -0.2290
vn 0.3600 0.3383 -0.8695
vn 0.1672 0.8991 -0.4045
vn 0.1371 0.9689 -0.2062
vn 0.5226 0.3384 -0.7825
vn 0.2427 0.8992 -0.3641
vn 0.1745 0.9689 -0.1755
vn 0.6652 0.3385 -0.6656
vn 0.3089 0.8992 -0.3098
vn 0.2052 0.9689 -0.1381
vn 0.7822 0.3386 -0.5230
vn 0.3632 0.8993 -0.2436
vn 0.2280 0.9690 -0.0954
vn 0.8691 0.3387 -0.3604
vn 0.4036 0.8994 -0.1681
vn 0.2420 0.9690 -0.0491
vn 0.9227 0.3389 -0.1839
vn 0.4284 0.8995 -0.0861
vn 0.4285 0.8995 -0.0861
vn 0.2468 0.9691 -0.0010
vn 0.9408 0.3390 -0.0004
vn 0.4368 0.8995 -0.0009
vn 0.4369 0.8995 -0.0009
vn 0.2420 0.9691 0.0472
vn 0.9227 0.3392 0.1831
vn 0.4285 0.8996 0.0843
vn 0.4284 0.8996 0.0843
vn 0.2279 0.9692 0.0935
vn 0.8692 0.3394 0.3596
vn 0.4036 0.8997 0.1663
vn 0.2051 0.9692 0.1361
vn 0.7823 0.3395 0.5223
vn 0.3632 0.8998 0.2418
vn 0.1745 0.9693 0.1735
vn 0.6653 0.3396 0.6649
vn 0.3089 0.8998 0.3080
vn 0.1371 0.9693 0.2042
vn 0.5227 0.3397 0.7819
vn 0.2427 0.8999 0.3623
vn 0.0944 0.9693 0.2270
vn 0.3601 0.3398 0.8688
vn 0.1672 0.8999 0.4027
vn 0.0481 0.9693 0.2410
vn 0.1836 0.3398 0.9224
vn 0.0852 0.9000 0.4276
vn -0.0000 0.9693 0.2458
vn -0.0000 0.3399 0.9405
vn -0.0000 0.9000 0.4360
vn -0.0481 0.9693 0.2410
vn -0.1836 0.3398 0.9224
vn -0.0852 0.9000 0.4276
vn -0.0944 0.9693 0.2270
vn -0.3601 0.3398 0.8689
vn -0.1672 0.8999 0.4027
vn -0.1371 0.9693 0.2042
vn -0.5227 0.3397 0.7819
vn -0.2427 0.8999 0.3623
vn -0.1745 0.9693 0.1735
vn -0.6653 0.3396 0.6649
vn -0.3089 0.8998 0.3080
vn -0.2051 0.9692 0.1361
vn -0.7823 0.3395 0.5223
vn -0.3632 0.8998 0.2418
vn -0.2279 0.9692 0.0935
vn -0.8692 0.3394 0.3596
vn -0.4036 0.8997 0.1663
vn -0.2420 0.9691 0.0472
vn -0.9227 0.3392 0.1831
vn -0.4285 0.8996 0.0843
vn -0.4284 0.8996 0.0843
vn -0.2468 0.9691 -0.0010
vn -0.9408 0.3390 -0.0004
vn -0.4368 0.8995 -0.0009
vn -0.4369 0.8995 -0.0009
vn -0.2420 0.9690 -0.0491
vn -0.9227 0.3389 -0.1839
vn -0.4284 0.8995 -0.0861
vn -0.4285 0.8995 -0.0861
vn -0.2280 0.9690 -0.0954
vn -0.8691 0.3387 -0.3604
vn -0.4036 0.8994 -0.1681
vn -0.2052 0.9689 -0.1381
vn -0.7822 0.3386 -0.5230
vn -0.3632 0.8993 -0.2436
vn -0.1745 0.9689 -0.1755
vn -0.6652 0.3385 -0.6656
vn -0.3089 0.8992 -0.3098
vn -0.1371 0.9689 -0.2062
vn -0.5226 0.3384 -0.7825
vn -0.2427 0.8992 -0.3641
vn -0.0944 0.9688 -0.2290
vn -0.3600 0.3383 -0.8695
vn -0.1672 0.8991 -0.4045
vn -0.0481 0.9688 -0.2430
vn -0.1835 0.3383 -0.9230
vn -0.0852 0.8991 -0.4293
vt 0.625209 0.263510
vt 0.627436 0.497716
vt 0.624315 0.493404
vt 0.621348 0.267418
vt 0.627091 0.499439
vt 0.626721 0.746794
vt 0.619838 0.738190
vt 0.619838 0.509894
vt 0.627627 0.751323
vt 0.625276 0.983046
vt 0.619367 0.983046
vt 0.622856 0.757874
vt 0.625000 0.011736
vt 0.625078 0.244223
vt 0.615115 0.232818
vt 0.615115 0.016678
vt 0.861334 0.503515
vt 0.864844 0.507026
vt 0.864788 0.743533
vt 0.863861 0.744461
vt 0.373605 0.745167
vt 0.373604 0.502917
vt 0.379187 0.509895
vt 0.379187 0.738190
vt 0.373485 0.502319
vt 0.137158 0.505024
vt 0.142654 0.499528
vt 0.375362 0.493404
vt 0.380123 0.267418
vt 0.135712 0.744033
vt 0.373166 0.747358
vt 0.375402 0.757874
vt 0.142229 0.750551
vt 0.381048 0.983046
vt 0.132066 0.510115
vt 0.132105 0.740427
vt 0.125000 0.733322
vt 0.125000 0.517182
vt 0.381877 0.016678
vt 0.381877 0.232818
vt 0.374837 0.256646
vt 0.374906 0.246668
vt 0.375000 0.006309
vt 0.381309 0.000000
vt 0.619105 0.000000
vt 0.625000 0.005896
vt 0.375000 0.009801
vt 0.750000 0.490000
vt 0.796822 0.485388
vt 0.841844 0.471731
vt 0.883337 0.449553
vt 0.919706 0.419706
vt 0.949553 0.383337
vt 0.971731 0.341844
vt 0.985388 0.296822
vt 0.990000 0.250000
vt 0.985388 0.203178
vt 0.971731 0.158156
vt 0.949553 0.116663
vt 0.919706 0.080294
vt 0.883337 0.050447
vt 0.841844 0.028269
vt 0.796822 0.014612
vt 0.750000 0.010000
vt 0.703178 0.014612
vt 0.658156 0.028269
vt 0.616663 0.050447
vt 0.580294 0.080294
vt 0.550447 0.116663
vt 0.528269 0.158156
vt 0.514612 0.203178
vt 0.510000 0.250000
vt 0.514612 0.296822
vt 0.528269 0.341844
vt 0.550447 0.383337
vt 0.580294 0.419706
vt 0.616663 0.449553
vt 0.658156 0.471731
vt 0.703178 0.485388
vt 0.968750 0.985209
vt 1.000000 0.985209
vt 0.999830 0.987908
vt 0.968750 0.987908
vt 0.999679 0.990327
vt 0.968750 0.990327
vt 0.999536 1.000000
vt 0.968750 1.000000
vt 0.296808 0.485321
vt 0.250000 0.489931
vt 0.250000 0.480669
vt 0.295001 0.476237
vt 0.250000 0.478336
vt 0.294546 0.473949
vt 0.250000 0.475732
vt 0.294038 0.471394
vt 0.937500 0.985209
vt 0.937500 0.987908
vt 0.937500 0.990327
vt 0.937500 1.000000
vt 0.341818 0.471668
vt 0.338273 0.463110
vt 0.337380 0.460955
vt 0.336384 0.458549
vt 0.906250 0.985209
vt 0.906250 0.987908
vt 0.906250 0.990327
vt 0.906250 1.000000
vt 0.383299 0.449496
vt 0.378153 0.441794
vt 0.376857 0.439854
vt 0.375410 0.437689
vt 0.875000 0.985209
vt 0.875000 0.987908
vt 0.875000 0.990327
vt 0.875000 1.000000
vt 0.419657 0.419657
vt 0.413107 0.413107
vt 0.411458 0.411458
vt 0.409616 0.409616
vt 0.843750 0.985209
vt 0.843750 0.987908
vt 0.843750 0.990327
vt 0.843750 1.000000
vt 0.449496 0.383299
vt 0.441794 0.378153
vt 0.439854 0.376857
vt 0.437689 0.375410
vt 0.812500 0.985209
vt 0.812500 0.987908
vt 0.812500 0.990327
vt 0.812500 1.000000
vt 0.471668 0.341818
vt 0.463110 0.338273
vt 0.460955 0.337380
vt 0.458549 0.336384
vt 0.781250 0.985209
vt 0.781250 0.987908
vt 0.781250 0.990327
vt 0.781250 1.000000
vt 0.485321 0.296808
vt 0.476237 0.295001
vt 0.473949 0.294546
vt 0.471394 0.294038
vt 0.750000 0.985209
vt 0.750000 0.987908
vt 0.750000 0.990327
vt 0.750000 1.000000
vt 0.489931 0.250000
vt 0.480669 0.250000
vt 0.478336 0.250000
vt 0.475732 0.250000
vt 0.718750 0.985209
vt 0.718750 0.987908
vt 0.718750 0.990327
vt 0.718750 1.000000
vt 0.485321 0.203192
vt 0.476237 0.204999
vt 0.473949 0.205454
vt 0.471394 0.205962
vt 0.687500 0.985209
vt 0.687500 0.987908
vt 0.687500 0.990327
vt 0.687500 1.000000
vt 0.471668 0.158182
vt 0.463110 0.161727
vt 0.460955 0.162620
vt 0.458549 0.163616
vt 0.656250 0.985209
vt 0.656250 0.987908
vt 0.656250 0.990327
vt 0.656250 1.000000
vt 0.449496 0.116701
vt 0.441794 0.121847
vt 0.439854 0.123143
vt 0.437689 0.124590
vt 0.625000 0.985209
vt 0.625000 0.987908
vt 0.625000 0.990327
vt 0.625000 1.000000
vt 0.419657 0.080343
vt 0.413107 0.086893
vt 0.411458 0.088542
vt 0.409616 0.090384
vt 0.593750 0.985209
vt 0.593750 0.987908
vt 0.593750 0.990327
vt 0.593750 1.000000
vt 0.383299 0.050504
vt 0.378153 0.058206
vt 0.376857 0.060146
vt 0.375410 0.062311
vt 0.562500 0.985209
vt 0.562500 0.987908
vt 0.562500 0.990327
vt 0.562500 1.000000
vt 0.341818 0.028332
vt 0.338273 0.036890
vt 0.337380 0.039045
vt 0.336384 0.041451
vt 0.531250 0.985209
vt 0.531250 0.987908
vt 0.531250 0.990327
vt 0.531250 1.000000
vt 0.296808 0.014679
vt 0.295001 0.023763
vt 0.294546 0.026051
vt 0.294038 0.028606
vt 0.500000 0.985209
vt 0.500000 0.987908
vt 0.500000 0.990327
vt 0.500000 1.000000
vt 0.250000 0.010069
vt 0.250000 0.019331
vt 0.250000 0.021664
vt 0.250000 0.024268
vt 0.468750 0.985209
vt 0.468750 0.987908
vt 0.468750 0.990327
vt 0.468750 1.000000
vt 0.203192 0.014679
vt 0.204999 0.023763
vt 0.205454 0.026051
vt 0.205962 0.028606
vt 0.437500 0.985209
vt 0.437500 0.987908
vt 0.437500 0.990327
vt 0.437500 1.000000
vt 0.158182 0.028332
vt 0.161727 0.036890
vt 0.162620 0.039045
vt 0.163616 0.041451
vt 0.406250 0.985209
vt 0.406250 0.987908
vt 0.406250 0.990327
vt 0.406250 1.000000
vt 0.116701 0.050504
vt 0.121847 0.058206
vt 0.123143 0.060146
vt 0.124590 0.062311
vt 0.375000 0.985209
vt 0.375000 0.987908
vt 0.375000 0.990327
vt 0.375000 1.000000
vt 0.080343 0.080343
vt 0.086893 0.086893
vt 0.088542 0.088542
vt 0.090384 0.090384
vt 0.343750 0.985209
vt 0.343750 0.987908
vt 0.343750 0.990327
vt 0.343750 1.000000
vt 0.050504 0.116701
vt 0.058206 0.121847
vt 0.060146 0.123143
vt 0.062311 0.124590
vt 0.312500 0.985209
vt 0.312500 0.987908
vt 0.312500 0.990327
vt 0.312500 1.000000
vt 0.028332 0.158182
vt 0.036890 0.161727
vt 0.039045 0.162620
vt 0.041451 0.163616
vt 0.281250 0.985209
vt 0.281250 0.987908
vt 0.281250 0.990327
vt 0.281250 1.000000
vt 0.014679 0.203192
vt 0.023763 0.204999
vt 0.026051 0.205454
vt 0.028606 0.205962
vt 0.250000 0.985209
vt 0.250000 0.987908
vt 0.250000 0.990327
vt 0.250000 1.000000
vt 0.010069 0.250000
vt 0.019331 0.250000
vt 0.021664 0.250000
vt 0.024268 0.250000
vt 0.218750 0.985209
vt 0.218750 0.987908
vt 0.218750 0.990327
vt 0.218750 1.000000
vt 0.014679 0.296808
vt 0.023763 0.295001
vt 0.026051 0.294546
vt 0.028606 0.294038
vt 0.187500 0.985209
vt 0.187500 0.987908
vt 0.187500 0.990327
vt 0.187500 1.000000
vt 0.028332 0.341818
vt 0.036890 0.338273
vt 0.039045 0.337380
vt 0.041451 0.336384
vt 0.156250 0.985209
vt 0.156250 0.987908
vt 0.156250 0.990327
vt 0.156250 1.000000
vt 0.050504 0.383299
vt 0.058206 0.378153
vt 0.060146 0.376857
vt 0.062311 0.375410
vt 0.125000 0.985209
vt 0.125000 0.987908
vt 0.125000 0.990327
vt 0.125000 1.000000
vt 0.080343 0.419657
vt 0.086893 0.413107
vt 0.088542 0.411458
vt 0.090384 0.409616
vt 0.093750 0.985209
vt 0.093750 0.987908
vt 0.093750 0.990327
vt 0.093750 1.000000
vt 0.116701 0.449496
vt 0.121847 0.441794
vt 0.123143 0.439854
vt 0.124590 0.437689
vt 0.062500 0.985209
vt 0.062500 0.987908
vt 0.062500 0.990327
vt 0.062500 1.000000
vt 0.158182 0.471668
vt 0.161727 0.463110
vt 0.162620 0.460955
vt 0.163616 0.458549
vt 0.031250 0.985209
vt 0.031250 0.987908
vt 0.031250 0.990327
vt 0.031250 1.000000
vt 0.203192 0.485321
vt 0.204999 0.476237
vt 0.205454 0.473949
vt 0.205962 0.471394
vt 0.000000 0.985209
vt 0.000170 0.987908
vt 0.000321 0.990327
vt 0.000464 1.000000
vt 1.000000 0.500000
vt 0.968750 0.500000
vt 0.031250 0.500000
vt 0.000000 0.500000
vt 0.937500 0.500000
vt 0.906250 0.500000
vt 0.875000 0.500000
vt 0.843750 0.500000
vt 0.812500 0.500000
vt 0.781250 0.500000
vt 0.750000 0.500000
vt 0.718750 0.500000
vt 0.687500 0.500000
vt 0.656250 0.500000
vt 0.625000 0.500000
vt 0.593750 0.500000
vt 0.562500 0.500000
vt 0.531250 0.500000
vt 0.500000 0.500000
vt 0.468750 0.500000
vt 0.437500 0.500000
vt 0.406250 0.500000
vt 0.375000 0.500000
vt 0.343750 0.500000
vt 0.312500 0.500000
vt 0.281250 0.500000
vt 0.250000 0.500000
vt 0.218750 0.500000
vt 0.187500 0.500000
vt 0.156250 0.500000
vt 0.125000 0.500000
vt 0.093750 0.500000
vt 0.062500 0.500000
s 1
usemtl Material.001
f 3/1/3 2/2/2 1/3/1 4/4/4
f 7/5/7 6/6/6 5/7/5 8/8/8
f 9/9/9 12/10/12 11/11/11 10/12/10
f 15/13/15 14/14/14 13/15/13 16/16/16
f 7/5/7 2/2/2 3/17/3 14/18/14 15/19/15 12/20/12 9/9/9 6/6/6
f 17/21/17 20/22/20 19/23/19 18/24/18
f 19/23/19 8/8/8 5/7/5 18/24/18
f 21/25/21 24/26/24 23/27/23 22/28/22
f 23/29/23 4/4/4 1/3/1 22/28/22
f 7/5/7 8/8/8 19/23/19 20/22/20 21/25/21 22/28/22 1/3/1 2/2/2
f 27/30/27 26/31/26 25/32/25 28/33/28
f 25/32/25 10/12/10 11/11/11 28/34/28
f 9/9/9 10/12/10 25/32/25 26/31/26 17/21/17 18/24/18 5/7/5 6/6/6
f 29/35/29 32/36/32 31/37/31 30/38/30
f 29/35/29 24/26/24 21/25/21 20/22/20 17/21/17 26/31/26 27/30/27 32/36/32
f 31/39/31 16/16/16 13/15/13 30/40/30
f 3/1/3 4/4/4 23/29/23 24/41/24 29/42/29 30/40/30 13/15/13 14/14/14
f 27/43/27 28/44/28 11/45/11 12/46/12 15/13/15 16/16/16 31/39/31 32/47/32
usemtl Material
f 35/1/3 34/2/2 33/3/1 36/4/4
f 39/5/7 38/6/6 37/7/5 40/8/8
f 41/9/9 44/10/12 43/11/11 42/12/10
f 47/13/15 46/14/14 45/15/13 48/16/16
f 39/5/7 34/2/2 35/17/3 46/18/14 47/19/15 44/20/12 41/9/9 38/6/6
f 49/21/17 52/22/20 51/23/19 50/24/18
f 51/23/19 40/8/8 37/7/5 50/24/18
f 53/25/21 56/26/24 55/27/23 54/28/22
f 55/29/23 36/4/4 33/3/1 54/28/22
f 39/5/7 40/8/8 51/23/19 52/22/20 53/25/21 54/28/22 33/3/1 34/2/2
f 59/30/27 58/31/26 57/32/25 60/33/28
f 57/32/25 42/12/10 43/11/11 60/34/28
f 41/9/9 42/12/10 57/32/25 58/31/26 49/21/17 50/24/18 37/7/5 38/6/6
f 61/35/29 64/36/32 63/37/31 62/38/30
f 61/35/29 56/26/24 53/25/21 52/22/20 49/21/17 58/31/26 59/30/27 64/36/32
f 63/39/31 48/16/16 45/15/13 62/40/30
f 35/1/3 36/4/4 55/29/23 56/41/24 61/42/29 62/40/30 45/15/13 46/14/14
f 59/43/27 60/44/28 43/45/11 44/46/12 47/13/15 48/16/16 63/39/31 64/47/32
usemtl Material.002
f 67/1/35 66/2/34 65/3/33 68/4/36
f 71/5/39 70/6/38 69/7/37 72/8/40
f 73/9/41 76/10/44 75/11/43 74/12/42
f 79/13/47 78/14/46 77/15/45 80/16/48
f 71/5/39 66/2/34 67/17/35 78/18/46 79/19/47 76/20/44 73/9/41 70/6/38
f 81/21/49 84/22/52 83/23/51 82/24/50
f 83/23/51 72/8/40 69/7/37 82/24/50
f 85/25/53 88/26/56 87/27/55 86/28/54
f 87/29/55 68/4/36 65/3/33 86/28/54
f 71/5/39 72/8/40 83/23/51 84/22/52 85/25/53 86/28/54 65/3/33 66/2/34
f 91/30/59 90/31/58 89/32/57 92/33/60
f 89/32/57 74/12/42 75/11/43 92/34/60
f 73/9/41 74/12/42 89/32/57 90/31/58 81/21/49 82/24/50 69/7/37 70/6/38
f 93/35/61 96/36/64 95/37/63 94/38/62
f 93/35/61 88/26/56 85/25/53 84/22/52 81/21/49 90/31/58 91/30/59 96/36/64
f 95/39/63 80/16/48 77/15/45 94/40/62
f 67/1/35 68/4/36 87/29/55 88/41/56 93/42/61 94/40/62 77/15/45 78/14/46
f 91/43/59 92/44/60 75/45/43 76/46/44 79/13/47 80/16/48 95/39/63 96/47/64
usemtl Material.003
f 99/1/3 98/2/2 97/3/1 100/4/4
f 103/5/7 102/6/6 101/7/5 104/8/8
f 105/9/9 108/10/12 107/11/11 106/12/10
f 111/13/15 110/14/14 109/15/13 112/16/16
f 103/5/7 98/2/2 99/17/3 110/18/14 111/19/15 108/20/12 105/9/9 102/6/6
f 113/21/17 116/22/20 115/23/19 114/24/18
f 115/23/19 104/8/8 101/7/5 114/24/18
f 117/25/21 120/26/24 119/27/23 118/28/22
f 119/29/23 100/4/4 97/3/1 118/28/22
f 103/5/7 104/8/8 115/23/19 116/22/20 117/25/21 118/28/22 97/3/1 98/2/2
f 123/30/27 122/31/26 121/32/25 124/33/28
f 121/32/25 106/12/10 107/11/11 124/34/28
f 105/9/9 106/12/10 121/32/25 122/31/26 113/21/17 114/24/18 101/7/5 102/6/6
f 125/35/29 128/36/32 127/37/31 126/38/30
f 125/35/29 120/26/24 117/25/21 116/22/20 113/21/17 122/31/26 123/30/27 128/36/32
f 127/39/31 112/16/16 109/15/13 126/40/30
f 99/1/3 100/4/4 119/29/23 120/41/24 125/42/29 126/40/30 109/15/13 110/14/14
f 123/43/27 124/44/28 107/45/11 108/46/12 111/13/15 112/16/16 127/39/31 128/47/32
usemtl Material.004
f 131/1/3 130/2/2 129/3/1 132/4/4
f 135/5/7 134/6/6 133/7/5 136/8/8
f 137/9/9 140/10/65 139/11/11 138/12/10
f 143/13/15 142/14/14 141/15/13 144/16/16
f 135/5/7 130/2/2 131/17/3 142/18/14 143/19/15 140/20/65 137/9/9 134/6/6
f 145/21/17 148/22/20 147/23/19 146/24/18
f 147/23/19 136/8/8 133/7/5 146/24/18
f 149/25/21 152/26/24 151/27/23 150/28/22
f 151/29/23 132/4/4 129/3/1 150/28/22
f 135/5/7 136/8/8 147/23/19 148/22/20 149/25/21 150/28/22 129/3/1 130/2/2
f 155/30/27 154/31/26 153/32/25 156/33/28
f 153/32/25 138/12/10 139/11/11 156/34/28
f 137/9/9 138/12/10 153/32/25 154/31/26 145/21/17 146/24/18 133/7/5 134/6/6
f 157/35/29 160/36/32 159/37/31 158/38/30
f 157/35/29 152/26/24 149/25/21 148/22/20 145/21/17 154/31/26 155/30/27 160/36/32
f 159/39/31 144/16/16 141/15/13 158/40/30
f 131/1/3 132/4/4 151/29/23 152/41/24 157/42/29 158/40/30 141/15/13 142/14/14
f 155/43/27 156/44/28 139/45/11 140/46/65 143/13/15 144/16/16 159/39/31 160/47/32
usemtl 
f 161/48/66 162/49/67 163/50/68 164/51/69 165/52/70 166/53/71 167/54/72 168/55/73 169/56/74 170/57/75 171/58/76 172/59/77 173/60/78 174/61/79 175/62/80 176/63/81 177/64/82 178/65/83 179/66/84 180/67/85 181/68/86 182/69/87 183/70/88 184/71/89 185/72/90 186/73/91 187/74/92 188/75/93 189/76/94 190/77/95 191/78/96 192/79/97
f 201/80/103 194/81/99 199/82/100 206/83/104
f 206/83/104 199/82/100 198/84/100 205/85/104
f 205/85/104 198/84/100 197/86/100 204/87/104
f 204/88/104 197/89/100 196/90/101 203/91/104
f 203/91/104 196/90/101 195/92/100 202/93/104
f 202/93/104 195/92/100 193/94/98 200/95/102
f 208/96/106 201/80/103 206/83/104 213/97/107
f 213/97/107 206/83/104 205/85/104 212/98/107
f 212/98/107 205/85/104 204/87/104 211/99/107
f 211/100/107 204/88/104 203/91/104 210/101/107
f 210/101/107 203/91/104 202/93/104 209/102/107
f 209/102/107 202/93/104 200/95/102 207/103/105
f 215/104/109 208/96/106 213/97/107 220/105/110
f 220/105/110 213/97/107 212/98/107 219/106/111
f 219/106/111 212/98/107 211/99/107 218/107/111
f 218/108/111 211/100/107 210/101/107 217/109/110
f 217/109/110 210/101/107 209/102/107 216/110/110
f 216/110/110 209/102/107 207/103/105 214/111/108
f 222/112/113 215/104/109 220/105/110 227/113/114
f 227/113/114 220/105/110 219/106/111 226/114/114
f 226/114/114 219/106/111 218/107/111 225/115/114
f 225/116/114 218/108/111 217/109/110 224/117/114
f 224/117/114 217/109/110 216/110/110 223/118/114
f 223/118/114 216/110/110 214/111/108 221/119/112
f 229/120/116 222/112/113 227/113/114 234/121/117
f 234/121/117 227/113/114 226/114/114 233/122/117
f 233/122/117 226/114/114 225/115/114 232/123/117
f 232/124/117 225/116/114 224/117/114 231/125/117
f 231/125/117 224/117/114 223/118/114 230/126/117
f 230/126/117 223/118/114 221/119/112 228/127/115
f 236/128/119 229/120/116 234/121/117 241/129/120
f 241/129/120 234/121/117 233/122/117 240/130/120
f 240/130/120 233/122/117 232/123/117 239/131/121
f 239/132/121 232/124/117 231/125/117 238/133/120
f 238/133/120 231/125/117 230/126/117 237/134/120
f 237/134/120 230/126/117 228/127/115 235/135/118
f 243/136/123 236/128/119 241/129/120 248/137/126
f 248/137/126 241/129/120 240/130/120 247/138/125
f 247/138/125 240/130/120 239/131/121 246/139/125
f 246/140/125 239/132/121 238/133/120 245/141/124
f 245/141/124 238/133/120 237/134/120 244/142/124
f 244/142/124 237/134/120 235/135/118 242/143/122
f 250/144/128 243/136/123 248/137/126 255/145/131
f 255/145/131 248/137/126 247/138/125 254/146/131
f 254/146/131 247/138/125 246/139/125 253/147/131
f 253/148/131 246/140/125 245/141/124 252/149/130
f 252/149/130 245/141/124 244/142/124 251/150/129
f 251/150/129 244/142/124 242/143/122 249/151/127
f 257/152/133 250/144/128 255/145/131 262/153/135
f 262/153/135 255/145/131 254/146/131 261/154/135
f 261/154/135 254/146/131 253/147/131 260/155/135
f 260/156/135 253/148/131 252/149/130 259/157/134
f 259/157/134 252/149/130 251/150/129 258/158/134
f 258/158/134 251/150/129 249/151/127 256/159/132
f 264/160/137 257/152/133 262/153/135 269/161/138
f 269/161/138 262/153/135 261/154/135 268/162/138
f 268/162/138 261/154/135 260/155/135 267/163/138
f 267/164/138 260/156/135 259/157/134 266/165/138
f 266/165/138 259/157/134 258/158/134 265/166/138
f 265/166/138 258/158/134 256/159/132 263/167/136
f 271/168/140 264/160/137 269/161/138 276/169/141
f 276/169/141 269/161/138 268/162/138 275/170/141
f 275/170/141 268/162/138 267/163/138 274/171/141
f 274/172/141 267/164/138 266/165/138 273/173/141
f 273/173/141 266/165/138 265/166/138 272/174/141
f 272/174/141 265/166/138 263/167/136 270/175/139
f 278/176/143 271/168/140 276/169/141 283/177/144
f 283/177/144 276/169/141 275/170/141 282/178/144
f 282/178/144 275/170/141 274/171/141 281/179/144
f 281/180/144 274/172/141 273/173/141 280/181/145
f 280/181/145 273/173/141 272/174/141 279/182/144
f 279/182/144 272/174/141 270/175/139 277/183/142
f 285/184/147 278/176/143 283/177/144 290/185/148
f 290/185/148 283/177/144 282/178/144 289/186/148
f 289/186/148 282/178/144 281/179/144 288/187/148
f 288/188/148 281/180/144 280/181/145 287/189/148
f 287/189/148 280/181/145 279/182/144 286/190/148
f 286/190/148 279/182/144 277/183/142 284/191/146
f 292/192/150 285/184/147 290/185/148 297/193/151
f 297/193/151 290/185/148 289/186/148 296/194/151
f 296/194/151 289/186/148 288/187/148 295/195/151
f 295/196/151 288/188/148 287/189/148 294/197/152
f 294/197/152 287/189/148 286/190/148 293/198/151
f 293/198/151 286/190/148 284/191/146 291/199/149
f 299/200/154 292/192/150 297/193/151 304/201/155
f 304/201/155 297/193/151 296/194/151 303/202/155
f 303/202/155 296/194/151 295/195/151 302/203/155
f 302/204/155 295/196/151 294/197/152 301/205/155
f 301/205/155 294/197/152 293/198/151 300/206/155
f 300/206/155 293/198/151 291/199/149 298/207/153
f 306/208/157 299/200/154 304/201/155 311/209/158
f 311/209/158 304/201/155 303/202/155 310/210/158
f 310/210/158 303/202/155 302/203/155 309/211/158
f 309/212/158 302/204/155 301/205/155 308/213/158
f 308/213/158 301/205/155 300/206/155 307/214/158
f 307/214/158 300/206/155 298/207/153 305/215/156
f 313/216/160 306/208/157 311/209/158 318/217/161
f 318/217/161 311/209/158 310/210/158 317/218/161
f 317/218/161 310/210/158 309/211/158 316/219/161
f 316/220/161 309/212/158 308/213/158 315/221/161
f 315/221/161 308/213/158 307/214/158 314/222/161
f 314/222/161 307/214/158 305/215/156 312/223/159
f 320/224/163 313/216/160 318/217/161 325/225/165
f 325/225/165 318/217/161 317/218/161 324/226/165
f 324/226/165 317/218/161 316/219/161 323/227/165
f 323/228/165 316/220/161 315/221/161 322/229/164
f 322/229/164 315/221/161 314/222/161 321/230/164
f 321/230/164 314/222/161 312/223/159 319/231/162
f 327/232/167 320/224/163 325/225/165 332/233/168
f 332/233/168 325/225/165 324/226/165 331/234/168
f 331/234/168 324/226/165 323/227/165 330/235/168
f 330/236/168 323/228/165 322/229/164 329/237/168
f 329/237/168 322/229/164 321/230/164 328/238/168
f 328/238/168 321/230/164 319/231/162 326/239/166
f 334/240/170 327/232/167 332/233/168 339/241/171
f 339/241/171 332/233/168 331/234/168 338/242/171
f 338/242/171 331/234/168 330/235/168 337/243/171
f 337/244/171 330/236/168 329/237/168 336/245/172
f 336/245/172 329/237/168 328/238/168 335/246/171
f 335/246/171 328/238/168 326/239/166 333/247/169
f 341/248/174 334/240/170 339/241/171 346/249/175
f 346/249/175 339/241/171 338/242/171 345/250/175
f 345/250/175 338/242/171 337/243/171 344/251/175
f 344/252/175 337/244/171 336/245/172 343/253/175
f 343/253/175 336/245/172 335/246/171 342/254/175
f 342/254/175 335/246/171 333/247/169 340/255/173
f 348/256/177 341/248/174 346/249/175 353/257/178
f 353/257/178 346/249/175 345/250/175 352/258/178
f 352/258/178 345/250/175 344/251/175 351/259/178
f 351/260/178 344/252/175 343/253/175 350/261/178
f 350/261/178 343/253/175 342/254/175 349/262/178
f 349/262/178 342/254/175 340/255/173 347/263/176
f 355/264/180 348/256/177 353/257/178 360/265/181
f 360/265/181 353/257/178 352/258/178 359/266/183
f 359/266/183 352/258/178 351/259/178 358/267/183
f 358/268/183 351/260/178 350/261/178 357/269/182
f 357/269/182 350/261/178 349/262/178 356/270/181
f 356/270/181 349/262/178 347/263/176 354/271/179
f 362/272/185 355/264/180 360/265/181 367/273/188
f 367/273/188 360/265/181 359/266/183 366/274/188
f 366/274/188 359/266/183 358/267/183 365/275/188
f 365/276/188 358/268/183 357/269/182 364/277/187
f 364/277/187 357/269/182 356/270/181 363/278/186
f 363/278/186 356/270/181 354/271/179 361/279/184
f 369/280/190 362/272/185 367/273/188 374/281/192
f 374/281/192 367/273/188 366/274/188 373/282/192
f 373/282/192 366/274/188 365/275/188 372/283/192
f 372/284/192 365/276/188 364/277/187 371/285/191
f 371/285/191 364/277/187 363/278/186 370/286/191
f 370/286/191 363/278/186 361/279/184 368/287/189
f 376/288/194 369/280/190 374/281/192 381/289/196
f 381/289/196 374/281/192 373/282/192 380/290/196
f 380/290/196 373/282/192 372/283/192 379/291/196
f 379/292/196 372/284/192 371/285/191 378/293/195
f 378/293/195 371/285/191 370/286/191 377/294/195
f 377/294/195 370/286/191 368/287/189 375/295/193
f 383/296/198 376/288/194 381/289/196 388/297/199
f 388/297/199 381/289/196 380/290/196 387/298/199
f 387/298/199 380/290/196 379/291/196 386/299/200
f 386/300/200 379/292/196 378/293/195 385/301/199
f 385/301/199 378/293/195 377/294/195 384/302/199
f 384/302/199 377/294/195 375/295/193 382/303/197
f 390/304/202 383/296/198 388/297/199 395/305/203
f 395/305/203 388/297/199 387/298/199 394/306/203
f 394/306/203 387/298/199 386/299/200 393/307/203
f 393/308/203 386/300/200 385/301/199 392/309/203
f 392/309/203 385/301/199 384/302/199 391/310/203
f 391/310/203 384/302/199 382/303/197 389/311/201
f 397/312/205 390/304/202 395/305/203 402/313/206
f 402/313/206 395/305/203 394/306/203 401/314/207
f 401/314/207 394/306/203 393/307/203 400/315/207
f 400/316/207 393/308/203 392/309/203 399/317/206
f 399/317/206 392/309/203 391/310/203 398/318/206
f 398/318/206 391/310/203 389/311/201 396/319/204
f 404/320/209 397/312/205 402/313/206 409/321/210
f 409/321/210 402/313/206 401/314/207 408/322/210
f 408/322/210 401/314/207 400/315/207 407/323/210
f 407/324/210 400/316/207 399/317/206 406/325/210
f 406/325/210 399/317/206 398/318/206 405/326/210
f 405/326/210 398/318/206 396/319/204 403/327/208
f 411/328/212 404/320/209 409/321/210 416/329/213
f 416/329/213 409/321/210 408/322/210 415/330/213
f 415/330/213 408/322/210 407/323/210 414/331/213
f 414/332/213 407/324/210 406/325/210 413/333/213
f 413/333/213 406/325/210 405/326/210 412/334/213
f 412/334/213 405/326/210 403/327/208 410/335/211
f 194/336/99 411/328/212 416/329/213 199/337/100
f 199/337/100 416/329/213 415/330/213 198/338/100
f 198/338/100 415/330/213 414/331/213 197/339/100
f 197/89/100 414/332/213 413/333/213 196/90/101
f 196/90/101 413/333/213 412/334/213 195/92/100
f 195/92/100 412/334/213 410/335/211 193/94/98
f 200/95/102 193/94/98 410/335/211 403/327/208 396/319/204 389/311/201 382/303/197 375/295/193 368/287/189 361/279/184 354/271/179 347/263/176 340/255/173 333/247/169 326/239/166 319/231/162 312/223/159 305/215/156 298/207/153 291/199/149 284/191/146 277/183/142 270/175/139 263/167/136 256/159/132 249/151/127 242/143/122 235/135/118 228/127/115 221/119/112 214/111/108 207/103/105
f 161/340/66 194/81/99 201/80/103 162/341/67
f 192/342/97 411/328/212 194/336/99 161/343/66
f 162/341/67 201/80/103 208/96/106 163/344/68
f 163/344/68 208/96/106 215/104/109 164/345/69
f 164/345/69 215/104/109 222/112/113 165/346/70
f 165/346/70 222/112/113 229/120/116 166/347/71
f 166/347/71 229/120/116 236/128/119 167/348/72
f 167/348/72 236/128/119 243/136/123 168/349/73
f 168/349/73 243/136/123 250/144/128 169/350/74
f 169/350/74 250/144/128 257/152/133 170/351/75
f 170/351/75 257/152/133 264/160/137 171/352/76
f 171/352/76 264/160/137 271/168/140 172/353/77
f 172/353/77 271/168/140 278/176/143 173/354/78
f 173/354/78 278/176/143 285/184/147 174/355/79
f 174/355/79 285/184/147 292/192/150 175/356/80
f 175/356/80 292/192/150 299/200/154 176/357/81
f 176/357/81 299/200/154 306/208/157 177/358/82
f 177/358/82 306/208/157 313/216/160 178/359/83
f 178/359/83 313/216/160 320/224/163 179/360/84
f 179/360/84 320/224/163 327/232/167 180/361/85
f 180/361/85 327/232/167 334/240/170 181/362/86
f 181/362/86 334/240/170 341/248/174 182/363/87
f 182/363/87 341/248/174 348/256/177 183/364/88
f 183/364/88 348/256/177 355/264/180 184/365/89
f 184/365/89 355/264/180 362/272/185 185/366/90
f 185/366/90 362/272/185 369/280/190 186/367/91
f 186/367/91 369/280/190 376/288/194 187/368/92
f 187/368/92 376/288/194 383/296/198 188/369/93
f 188/369/93 383/296/198 390/304/202 189/370/94
f 189/370/94 390/304/202 397/312/205 190/371/95
f 190/371/95 397/312/205 404/320/209 191/372/96
f 191/372/96 404/320/209 411/328/212 192/342/97
f 417/48/214 418/49/215 419/50/216 420/51/217 421/52/218 422/53/219 423/54/220 424/55/221 425/56/222 426/57/223 427/58/224 428/59/225 429/60/226 430/61/227 431/62/228 432/63/229 433/64/230 434/65/231 435/66/232 436/67/233 437/68/234 438/69/235 439/70/236 440/71/237 441/72/238 442/73/239 443/74/240 444/75/241 445/76/242 446/77/243 447/78/244 448/79/245
f 457/80/250 450/81/247 455/82/248 462/83/251
f 462/83/251 455/82/248 454/84/248 461/85/251
f 461/85/251 454/84/248 453/86/248 460/87/251
f 460/88/251 453/89/248 452/90/248 459/91/251
f 459/91/251 452/90/248 451/92/248 458/93/251
f 458/93/251 451/92/248 449/94/246 456/95/249
f 464/96/253 457/80/250 462/83/251 469/97/254
f 469/97/254 462/83/251 461/85/251 468/98/254
f 468/98/254 461/85/251 460/87/251 467/99/254
f 467/100/254 460/88/251 459/91/251 466/101/254
f 466/101/254 459/91/251 458/93/251 465/102/254
f 465/102/254 458/93/251 456/95/249 463/103/252
f 471/104/256 464/96/253 469/97/254 476/105/257
f 476/105/257 469/97/254 468/98/254 475/106/257
f 475/106/257 468/98/254 467/99/254 474/107/257
f 474/108/257 467/100/254 466/101/254 473/109/257
f 473/109/257 466/101/254 465/102/254 472/110/257
f 472/110/257 465/102/254 463/103/252 470/111/255
f 478/112/259 471/104/256 476/105/257 483/113/260
f 483/113/260 476/105/257 475/106/257 482/114/260
f 482/114/260 475/106/257 474/107/257 481/115/260
f 481/116/260 474/108/257 473/109/257 480/117/260
f 480/117/260 473/109/257 472/110/257 479/118/260
f 479/118/260 472/110/257 470/111/255 477/119/258
f 485/120/262 478/112/259 483/113/260 490/121/263
f 490/121/263 483/113/260 482/114/260 489/122/263
f 489/122/263 482/114/260 481/115/260 488/123/263
f 488/124/263 481/116/260 480/117/260 487/125/263
f 487/125/263 480/117/260 479/118/260 486/126/263
f 486/126/263 479/118/260 477/119/258 484/127/261
f 492/128/265 485/120/262 490/121/263 497/129/266
f 497/129/266 490/121/263 489/122/263 496/130/266
f 496/130/266 489/122/263 488/123/263 495/131/266
f 495/132/266 488/124/263 487/125/263 494/133/266
f 494/133/266 487/125/263 486/126/263 493/134/266
f 493/134/266 486/126/263 484/127/261 491/135/264
f 499/136/268 492/128/265 497/129/266 504/137/270
f 504/137/270 497/129/266 496/130/266 503/138/269
f 503/138/269 496/130/266 495/131/266 502/139/269
f 502/140/269 495/132/266 494/133/266 501/141/269
f 501/141/269 494/133/266 493/134/266 500/142/269
f 500/142/269 493/134/266 491/135/264 498/143/267
f 506/144/272 499/136/268 504/137/270 511/145/274
f 511/145/274 504/137/270 503/138/269 510/146/273
f 510/146/273 503/138/269 502/139/269 509/147/273
f 509/148/273 502/140/269 501/141/269 508/149/273
f 508/149/273 501/141/269 500/142/269 507/150/273
f 507/150/273 500/142/269 498/143/267 505/151/271
f 513/152/276 506/144/272 511/145/274 518/153/278
f 518/153/278 511/145/274 510/146/273 517/154/278
f 517/154/278 510/146/273 509/147/273 516/155/278
f 516/156/278 509/148/273 508/149/273 515/157/277
f 515/157/277 508/149/273 507/150/273 514/158/277
f 514/158/277 507/150/273 505/151/271 512/159/275
f 520/160/280 513/152/276 518/153/278 525/161/281
f 525/161/281 518/153/278 517/154/278 524/162/281
f 524/162/281 517/154/278 516/155/278 523/163/281
f 523/164/281 516/156/278 515/157/277 522/165/281
f 522/165/281 515/157/277 514/158/277 521/166/281
f 521/166/281 514/158/277 512/159/275 519/167/279
f 527/168/283 520/160/280 525/161/281 532/169/284
f 532/169/284 525/161/281 524/162/281 531/170/284
f 531/170/284 524/162/281 523/163/281 530/171/284
f 530/172/284 523/164/281 522/165/281 529/173/284
f 529/173/284 522/165/281 521/166/281 528/174/284
f 528/174/284 521/166/281 519/167/279 526/175/282
f 534/176/286 527/168/283 532/169/284 539/177/287
f 539/177/287 532/169/284 531/170/284 538/178/287
f 538/178/287 531/170/284 530/171/284 537/179/287
f 537/180/287 530/172/284 529/173/284 536/181/287
f 536/181/287 529/173/284 528/174/284 535/182/287
f 535/182/287 528/174/284 526/175/282 533/183/285
f 541/184/289 534/176/286 539/177/287 546/185/290
f 546/185/290 539/177/287 538/178/287 545/186/290
f 545/186/290 538/178/287 537/179/287 544/187/290
f 544/188/290 537/180/287 536/181/287 543/189/290
f 543/189/290 536/181/287 535/182/287 542/190/290
f 542/190/290 535/182/287 533/183/285 540/191/288
f 548/192/292 541/184/289 546/185/290 553/193/293
f 553/193/293 546/185/290 545/186/290 552/194/293
f 552/194/293 545/186/290 544/187/290 551/195/293
f 551/196/293 544/188/290 543/189/290 550/197/293
f 550/197/293 543/189/290 542/190/290 549/198/293
f 549/198/293 542/190/290 540/191/288 547/199/291
f 555/200/295 548/192/292 553/193/293 560/201/296
f 560/201/296 553/193/293 552/194/293 559/202/296
f 559/202/296 552/194/293 551/195/293 558/203/296
f 558/204/296 551/196/293 550/197/293 557/205/296
f 557/205/296 550/197/293 549/198/293 556/206/296
f 556/206/296 549/198/293 547/199/291 554/207/294
f 562/208/298 555/200/295 560/201/296 567/209/299
f 567/209/299 560/201/296 559/202/296 566/210/299
f 566/210/299 559/202/296 558/203/296 565/211/299
f 565/212/299 558/204/296 557/205/296 564/213/299
f 564/213/299 557/205/296 556/206/296 563/214/299
f 563/214/299 556/206/296 554/207/294 561/215/297
f 569/216/301 562/208/298 567/209/299 574/217/302
f 574/217/302 567/209/299 566/210/299 573/218/302
f 573/218/302 566/210/299 565/211/299 572/219/302
f 572/220/302 565/212/299 564/213/299 571/221/302
f 571/221/302 564/213/299 563/214/299 570/222/302
f 570/222/302 563/214/299 561/215/297 568/223/300
f 576/224/304 569/216/301 574/217/302 581/225/305
f 581/225/305 574/217/302 573/218/302 580/226/305
f 580/226/305 573/218/302 572/219/302 579/227/305
f 579/228/305 572/220/302 571/221/302 578/229/305
f 578/229/305 571/221/302 570/222/302 577/230/305
f 577/230/305 570/222/302 568/223/300 575/231/303
f 583/232/307 576/224/304 581/225/305 588/233/308
f 588/233/308 581/225/305 580/226/305 587/234/308
f 587/234/308 580/226/305 579/227/305 586/235/308
f 586/236/308 579/228/305 578/229/305 585/237/308
f 585/237/308 578/229/305 577/230/305 584/238/308
f 584/238/308 577/230/305 575/231/303 582/239/306
f 590/240/310 583/232/307 588/233/308 595/241/311
f 595/241/311 588/233/308 587/234/308 594/242/311
f 594/242/311 587/234/308 586/235/308 593/243/311
f 593/244/311 586/236/308 585/237/308 592/245/311
f 592/245/311 585/237/308 584/238/308 591/246/311
f 591/246/311 584/238/308 582/239/306 589/247/309
f 597/248/313 590/240/310 595/241/311 602/249/314
f 602/249/314 595/241/311 594/242/311 601/250/314
f 601/250/314 594/242/311 593/243/311 600/251/314
f 600/252/314 593/244/311 592/245/311 599/253/314
f 599/253/314 592/245/311 591/246/311 598/254/314
f 598/254/314 591/246/311 589/247/309 596/255/312
f 604/256/316 597/248/313 602/249/314 609/257/317
f 609/257/317 602/249/314 601/250/314 608/258/317
f 608/258/317 601/250/314 600/251/314 607/259/317
f 607/260/317 600/252/314 599/253/314 606/261/317
f 606/261/317 599/253/314 598/254/314 605/262/317
f 605/262/317 598/254/314 596/255/312 603/263/315
f 611/264/319 604/256/316 609/257/317 616/265/321
f 616/265/321 609/257/317 608/258/317 615/266/321
f 615/266/321 608/258/317 607/259/317 614/267/321
f 614/268/321 607/260/317 606/261/317 613/269/320
f 613/269/320 606/261/317 605/262/317 612/270/320
f 612/270/320 605/262/317 603/263/315 610/271/318
f 618/272/323 611/264/319 616/265/321 623/273/325
f 623/273/325 616/265/321 615/266/321 622/274/324
f 622/274/324 615/266/321 614/267/321 621/275/324
f 621/276/324 614/268/321 613/269/320 620/277/324
f 620/277/324 613/269/320 612/270/320 619/278/324
f 619/278/324 612/270/320 610/271/318 617/279/322
f 625/280/327 618/272/323 623/273/325 630/281/329
f 630/281/329 623/273/325 622/274/324 629/282/328
f 629/282/328 622/274/324 621/275/324 628/283/328
f 628/284/328 621/276/324 620/277/324 627/285/328
f 627/285/328 620/277/324 619/278/324 626/286/328
f 626/286/328 619/278/324 617/279/322 624/287/326
f 632/288/331 625/280/327 630/281/329 637/289/332
f 637/289/332 630/281/329 629/282/328 636/290/332
f 636/290/332 629/282/328 628/283/328 635/291/332
f 635/292/332 628/284/328 627/285/328 634/293/332
f 634/293/332 627/285/328 626/286/328 633/294/332
f 633/294/332 626/286/328 624/287/326 631/295/330
f 639/296/334 632/288/331 637/289/332 644/297/335
f 644/297/335 637/289/332 636/290/332 643/298/335
f 643/298/335 636/290/332 635/291/332 642/299/335
f 642/300/335 635/292/332 634/293/332 641/301/335
f 641/301/335 634/293/332 633/294/332 640/302/335
f 640/302/335 633/294/332 631/295/330 638/303/333
f 646/304/337 639/296/334 644/297/335 651/305/338
f 651/305/338 644/297/335 643/298/335 650/306/338
f 650/306/338 643/298/335 642/299/335 649/307/338
f 649/308/338 642/300/335 641/301/335 648/309/338
f 648/309/338 641/301/335 640/302/335 647/310/338
f 647/310/338 640/302/335 638/303/333 645/311/336
f 653/312/340 646/304/337 651/305/338 658/313/341
f 658/313/341 651/305/338 650/306/338 657/314/341
f 657/314/341 650/306/338 649/307/338 656/315/341
f 656/316/341 649/308/338 648/309/338 655/317/341
f 655/317/341 648/309/338 647/310/338 654/318/341
f 654/318/341 647/310/338 645/311/336 652/319/339
f 660/320/343 653/312/340 658/313/341 665/321/344
f 665/321/344 658/313/341 657/314/341 664/322/344
f 664/322/344 657/314/341 656/315/341 663/323/344
f 663/324/344 656/316/341 655/317/341 662/325/344
f 662/325/344 655/317/341 654/318/341 661/326/344
f 661/326/344 654/318/341 652/319/339 659/327/342
f 667/328/346 660/320/343 665/321/344 672/329/347
f 672/329/347 665/321/344 664/322/344 671/330/347
f 671/330/347 664/322/344 663/323/344 670/331/347
f 670/332/347 663/324/344 662/325/344 669/333/347
f 669/333/347 662/325/344 661/326/344 668/334/347
f 668/334/347 661/326/344 659/327/342 666/335/345
f 450/336/247 667/328/346 672/329/347 455/337/248
f 455/337/248 672/329/347 671/330/347 454/338/248
f 454/338/248 671/330/347 670/331/347 453/339/248
f 453/89/248 670/332/347 669/333/347 452/90/248
f 452/90/248 669/333/347 668/334/347 451/92/248
f 451/92/248 668/334/347 666/335/345 449/94/246
f 456/95/249 449/94/246 666/335/345 659/327/342 652/319/339 645/311/336 638/303/333 631/295/330 624/287/326 617/279/322 610/271/318 603/263/315 596/255/312 589/247/309 582/239/306 575/231/303 568/223/300 561/215/297 554/207/294 547/199/291 540/191/288 533/183/285 526/175/282 519/167/279 512/159/275 505/151/271 498/143/267 491/135/264 484/127/261 477/119/258 470/111/255 463/103/252
f 417/340/214 450/81/247 457/80/250 418/341/215
f 448/342/245 667/328/346 450/336/247 417/343/214
f 418/341/215 457/80/250 464/96/253 419/344/216
f 419/344/216 464/96/253 471/104/256 420/345/217
f 420/345/217 471/104/256 478/112/259 421/346/218
f 421/346/218 478/112/259 485/120/262 422/347/219
f 422/347/219 485/120/262 492/128/265 423/348/220
f 423/348/220 492/128/265 499/136/268 424/349/221
f 424/349/221 499/136/268 506/144/272 425/350/222
f 425/350/222 506/144/272 513/152/276 426/351/223
f 426/351/223 513/152/276 520/160/280 427/352/224
f 427/352/224 520/160/280 527/168/283 428/353/225
f 428/353/225 527/168/283 534/176/286 429/354/226
f 429/354/226 534/176/286 541/184/289 430/355/227
f 430/355/227 541/184/289 548/192/292 431/356/228
f 431/356/228 548/192/292 555/200/295 432/357/229
f 432/357/229 555/200/295 562/208/298 433/358/230
f 433/358/230 562/208/298 569/216/301 434/359/231
f 434/359/231 569/216/301 576/224/304 435/360/232
f 435/360/232 576/224/304 583/232/307 436/361/233
f 436/361/233 583/232/307 590/240/310 437/362/234
f 437/362/234 590/240/310 597/248/313 438/363/235
f 438/363/235 597/248/313 604/256/316 439/364/236
f 439/364/236 604/256/316 611/264/319 440/365/237
f 440/365/237 611/264/319 618/272/323 441/366/238
f 441/366/238 618/272/323 625/280/327 442/367/239
f 442/367/239 625/280/327 632/288/331 443/368/240
f 443/368/240 632/288/331 639/296/334 444/369/241
f 444/369/241 639/296/334 646/304/337 445/370/242
f 445/370/242 646/304/337 653/312/340 446/371/243
f 446/371/243 653/312/340 660/320/343 447/372/244
f 447/372/244 660/320/343 667/328/346 448/342/245
